PathFileType	4	(X/Y/Z)	53_2_64_p1_0-426_filt_butterworth.trc
DataRate	CameraRate	NumFrames	NumMarkers	Units	OrigDataRate	OrigDataStartFrame	OrigNumFrames
60.0	60.0	5	27	m	60.0	106	426
Frame#	Time	RHip			RKnee			RAnkle			RBigToe			RSmallToe			RHeel			LHip			LKnee			LAnkle			LBigToe			LSmallToe			LHeel			Neck			Head			Nose			RShoulder			RElbow			RWrist			RThumb			RIndex			RPinky			LShoulder			LElbow			LWrist			LThumb			LIndex			LPinky			
		X1	Y1	Z1	X2	Y2	Z2	X3	Y3	Z3	X4	Y4	Z4	X5	Y5	Z5	X6	Y6	Z6	X7	Y7	Z7	X8	Y8	Z8	X9	Y9	Z9	X10	Y10	Z10	X11	Y11	Z11	X12	Y12	Z12	X13	Y13	Z13	X14	Y14	Z14	X15	Y15	Z15	X16	Y16	Z16	X17	Y17	Z17	X18	Y18	Z18	X19	Y19	Z19	X20	Y20	Z20	X21	Y21	Z21	X22	Y22	Z22	X23	Y23	Z23	X24	Y24	Z24	X25	Y25	Z25	X26	Y26	Z26	X27	Y27	Z27	
106	1.7666666666666666	0.40242299252200525	0.8569247774173941	0.6549180202761913	0.4068596368569376	0.39351442134518094	0.7937596389704973	0.36000455917316593	-0.0315976778425331	0.9019761242046632	0.32529087528393386	-0.055284643913554726	0.752972594737942	0.378239170897787	-0.06588801002322715	0.7706175991325703	0.3267832342028284	-0.1008599752496569	0.9830579165610343	0.21152211118713626	0.8615984263110287	0.7049929495286843	0.17008785188557912	0.38685064288519144	0.8133541425814715	0.16141775037121825	-0.04476543296045115	0.900533028305749	0.17865062611484198	-0.052113238659005315	0.7617974330548938	0.11816730866222669	-0.042599704719356785	0.7749555268533086	0.1800886928797013	-0.08103021969280758	0.9348321936063868	0.31783261243705463	1.341487738441873	0.6703876687285	0.31588230841668535	1.5877015548225968	0.591227243288815	0.3182043592231758	1.4525680255366085	0.4856787129656994	0.452117947348033	1.2648131173605783	0.6647725230054996	0.4894664450762003	0.9900459298828557	0.6360656986994717	0.4816033037123473	0.7483641192209681	0.6100129844581927	0.3990904768803758	0.6513858263521947	0.59065066208731	0.4051582217245956	0.6462303339568224	0.5838207255807745	0.46268741428391946	0.6374229979657522	0.6316858780206929	0.16364708311339904	1.2813182218045382	0.732378652183965	0.1208192192634402	1.0187025481034369	0.698488335304393	0.09969302699742177	0.784876791377578	0.6799375931297411	0.1503955909642119	0.6936775866596567	0.6171611696029682	0.1276531571967	0.6328664547201326	0.6272574954006322	0.0726324184925067	0.6672544099932839	0.6531823946914196	
107	1.7833333333333334	0.4017573376616278	0.8576404706900463	0.6531440824745011	0.4067419412996281	0.39299651027967697	0.7934323911706492	0.3593341656636905	-0.03319418012116228	0.9038887809090891	0.3248789332447021	-0.054197865884404374	0.7515242242127517	0.377423867380261	-0.06440802966549984	0.7680541086053743	0.3263802082015683	-0.10127179288138295	0.983806234278175	0.21073030929039163	0.8620484526606602	0.7042152760052038	0.1707486177465129	0.38762309822804863	0.811285723944899	0.16142761033326036	-0.044786627420408745	0.9005542091038758	0.1776375167108744	-0.05047249251250856	0.7593593001263088	0.11761517364636379	-0.0395216351991049	0.7715196273571442	0.18004367296752183	-0.08173075540199748	0.9354891610084675	0.31627492700330817	1.3423532690743447	0.6681362996256334	0.3158427350887266	1.587556544260606	0.59096005869187	0.318765018761085	1.4532812550319845	0.48327810639783964	0.45244515076470926	1.264966468509296	0.6635960395320215	0.4899111918440968	0.9894753712436434	0.6348537171327001	0.4812546396348766	0.7493691915054929	0.6058359728738973	0.3989741996407484	0.6515530352830048	0.5908628977464738	0.4047673114878474	0.6471745192546846	0.5810809875767353	0.46268744493016967	0.639249089526027	0.6257719335338914	0.16335759828789634	1.2817174218787908	0.7312560576563103	0.1200183756844263	1.0190108066706889	0.6986525589086433	0.09823527824510156	0.784843229515104	0.6767993576416166	0.15076735378108147	0.6942325673073947	0.6114104597056103	0.12905008925887856	0.6346108940443643	0.6171337179999316	0.0717336886505465	0.6670886920407915	0.646461835463699	
108	1.8	0.4010973929992721	0.8584866830776489	0.6512926687251764	0.4066346713592027	0.3925078811093435	0.7929975266580154	0.35874958047246885	-0.03479473130118162	0.9058895729464779	0.32419816951878555	-0.052838727909912404	0.749245103494822	0.3765336626857796	-0.06279026047007957	0.7651984038053412	0.3259265602227474	-0.10182930490419442	0.9848631147268934	0.20980381620612742	0.8624921719239353	0.7032174948816312	0.1713326656059706	0.3882716630415417	0.8093069217771857	0.16143139064778406	-0.04482336596147337	0.9005722079881577	0.17663311319914182	-0.049365358362651116	0.7564924618160404	0.11700019243133634	-0.03634277904121631	0.7677761190788227	0.17989394911813328	-0.08252663964085002	0.9361453399157991	0.314601325688758	1.34334067844798	0.6653495618141814	0.31555066302262175	1.5875793853893687	0.5900406675729174	0.319190183006102	1.4540045897536555	0.4813289128308341	0.45255327474347695	1.2650701643080275	0.6633367415027474	0.49023577395419937	0.9886030160888073	0.6343277879888733	0.48103597806391185	0.7504248416615159	0.6015306478792969	0.39859445957339945	0.6519923041433037	0.590776026512222	0.4043039600814389	0.6478999409747667	0.5785573222682923	0.46324291295979064	0.6412440025876214	0.6194814878386095	0.16286063195847092	1.282196343317059	0.7294144388629985	0.11942441578452465	1.0186876522299562	0.6988903873411599	0.09668670255942885	0.7842798119000417	0.6738045966373597	0.15080277277627166	0.6947273658071784	0.6065479274768358	0.12954397340120619	0.6357278646693039	0.6095687060193915	0.07120263891877798	0.66685623783174	0.640031169230021	
109	1.8166666666666669	0.40047787774229204	0.8594132036277424	0.6494285080480545	0.40639850306772063	0.3920881433701125	0.7921770033714174	0.3581561909114374	-0.03630101971026617	0.9077492608343103	0.3231432550912181	-0.05093715585177474	0.7457813399023989	0.375626479774092	-0.06128866016694364	0.7624220698929753	0.3253854064182132	-0.10235403325943075	0.9860170587404277	0.20877123123764302	0.862947186734419	0.702049164857893	0.17181835979878088	0.38881208243840537	0.8075714872093273	0.16142646471913727	-0.04486264433129985	0.9005837271177746	0.1757970375301198	-0.04865105863148055	0.7534915304215025	0.11640944939158457	-0.03345937559426174	0.7642417569853953	0.1796560032848225	-0.08336627235986235	0.9367409270621809	0.3130418305225223	1.34433279756313	0.6624051864565343	0.3150140113556524	1.5876856481393633	0.5885175680106286	0.319421132785909	1.4546389357520728	0.4801073761389998	0.45238113803496505	1.2651038021177015	0.6635992851112439	0.49020437208449763	0.9876237152320281	0.6338669316468812	0.48088636197244417	0.7511369164542548	0.5976597554265655	0.397918788250029	0.6526181712878071	0.5904534949514637	0.4037394446893181	0.648131685428298	0.5765743560173201	0.46391586526686446	0.6428762861449699	0.6141796330865045	0.162215392192739	1.2826330347307917	0.7272843905634765	0.11904415202205643	1.0177758542812023	0.6992514378742078	0.09514057985402315	0.7834957020977973	0.6711935821203606	0.15056777782018166	0.6952729276416281	0.602981982861685	0.12935649806002902	0.6365311409321011	0.604065678489514	0.07078615726638585	0.6664617403551709	0.6340008622693896	
110	1.8333333333333333	0.399896633491662	0.8603240085882212	0.6475574397634162	0.40595037285270635	0.3917552475033513	0.7907570309640058	0.3574583574171021	-0.03757757743454951	0.909214134000146	0.3217236215699408	-0.0483807645443932	0.741164274683889	0.37472755283549114	-0.059961252261228185	0.7598148464818116	0.3247728365789268	-0.10275826761774984	0.987208033415134	0.20768072008292127	0.8634316965010096	0.7007934826707116	0.17215251015422453	0.3892179040673037	0.8062367050506163	0.16140994904348388	-0.04488961772180272	0.9005870294009027	0.17525008017616245	-0.04816908898359002	0.7506389157587028	0.11592547455432387	-0.031281885589299986	0.7614334619608666	0.17933930810074175	-0.08417137724603875	0.9371902399719028	0.3118200820580858	1.345186807533439	0.6596987384270135	0.3143209358139759	1.5877036668245126	0.5864701614101923	0.3194580654513311	1.455105036101603	0.4796727934253427	0.45194130747425676	1.2650028694150117	0.6638443646468329	0.48977129517153956	0.9867888664642035	0.6329851763989921	0.4807750687225829	0.7513492682381872	0.5946026558289226	0.3970505715213064	0.6532574726201233	0.5901256272765375	0.403194567408653	0.6478136967752135	0.5753736140598711	0.46413237923046147	0.6437533130343059	0.6106783376555037	0.1614931303282135	1.2829041233800198	0.7251897865689207	0.11886847324095634	1.0164704024715847	0.699510910142727	0.0937455933390205	0.7826992399456313	0.6691842897345804	0.15025684356131366	0.695881383094873	0.6006038973837332	0.12886065052843093	0.6375025346259415	0.5993852768608336	0.07027244187787694	0.6657603270351803	0.6286833508986526	
